<mxfile host="Electron" agent="Mozilla/5.0 (Windows NT 10.0; Win64; x64) AppleWebKit/537.36 (KHTML, like Gecko) draw.io/24.7.17 Chrome/128.0.6613.36 Electron/32.0.1 Safari/537.36" version="24.7.17">
  <diagram id="C5RBs43oDa-KdzZeNtuy" name="Page-1">
    <mxGraphModel dx="3754" dy="1258" grid="1" gridSize="10" guides="1" tooltips="1" connect="1" arrows="1" fold="1" page="1" pageScale="1" pageWidth="1654" pageHeight="2336" math="0" shadow="0">
      <root>
        <mxCell id="WIyWlLk6GJQsqaUBKTNV-0" />
        <mxCell id="WIyWlLk6GJQsqaUBKTNV-1" parent="WIyWlLk6GJQsqaUBKTNV-0" />
        <mxCell id="tif9Hd5MlSPMltk4A7el-10" style="edgeStyle=orthogonalEdgeStyle;rounded=0;orthogonalLoop=1;jettySize=auto;html=1;" edge="1" parent="WIyWlLk6GJQsqaUBKTNV-1" source="bh_W2lqO3ql8Sssj9P7H-0" target="tif9Hd5MlSPMltk4A7el-2">
          <mxGeometry relative="1" as="geometry" />
        </mxCell>
        <mxCell id="bh_W2lqO3ql8Sssj9P7H-0" value="Начало" style="rounded=1;whiteSpace=wrap;html=1;" parent="WIyWlLk6GJQsqaUBKTNV-1" vertex="1">
          <mxGeometry x="-60" y="30" width="120" height="60" as="geometry" />
        </mxCell>
        <mxCell id="bh_W2lqO3ql8Sssj9P7H-5" style="edgeStyle=orthogonalEdgeStyle;rounded=0;orthogonalLoop=1;jettySize=auto;html=1;entryX=0.5;entryY=0;entryDx=0;entryDy=0;" parent="WIyWlLk6GJQsqaUBKTNV-1" source="bh_W2lqO3ql8Sssj9P7H-1" target="bh_W2lqO3ql8Sssj9P7H-4" edge="1">
          <mxGeometry relative="1" as="geometry" />
        </mxCell>
        <mxCell id="bh_W2lqO3ql8Sssj9P7H-1" value="Ввод&lt;div&gt;x&lt;/div&gt;" style="shape=parallelogram;perimeter=parallelogramPerimeter;whiteSpace=wrap;html=1;fixedSize=1;" parent="WIyWlLk6GJQsqaUBKTNV-1" vertex="1">
          <mxGeometry x="-70" y="190" width="120" height="60" as="geometry" />
        </mxCell>
        <mxCell id="bh_W2lqO3ql8Sssj9P7H-11" style="edgeStyle=orthogonalEdgeStyle;rounded=0;orthogonalLoop=1;jettySize=auto;html=1;" parent="WIyWlLk6GJQsqaUBKTNV-1" source="bh_W2lqO3ql8Sssj9P7H-4" target="bh_W2lqO3ql8Sssj9P7H-10" edge="1">
          <mxGeometry relative="1" as="geometry" />
        </mxCell>
        <mxCell id="bh_W2lqO3ql8Sssj9P7H-13" style="edgeStyle=orthogonalEdgeStyle;rounded=0;orthogonalLoop=1;jettySize=auto;html=1;" parent="WIyWlLk6GJQsqaUBKTNV-1" source="bh_W2lqO3ql8Sssj9P7H-4" edge="1">
          <mxGeometry relative="1" as="geometry">
            <mxPoint x="80" y="460" as="targetPoint" />
          </mxGeometry>
        </mxCell>
        <mxCell id="bh_W2lqO3ql8Sssj9P7H-4" value="x &amp;lt; -6" style="rhombus;whiteSpace=wrap;html=1;" parent="WIyWlLk6GJQsqaUBKTNV-1" vertex="1">
          <mxGeometry x="-80" y="280" width="140" height="80" as="geometry" />
        </mxCell>
        <mxCell id="bh_W2lqO3ql8Sssj9P7H-16" style="edgeStyle=orthogonalEdgeStyle;rounded=0;orthogonalLoop=1;jettySize=auto;html=1;entryX=0.5;entryY=0;entryDx=0;entryDy=0;" parent="WIyWlLk6GJQsqaUBKTNV-1" source="bh_W2lqO3ql8Sssj9P7H-7" target="bh_W2lqO3ql8Sssj9P7H-15" edge="1">
          <mxGeometry relative="1" as="geometry" />
        </mxCell>
        <mxCell id="bh_W2lqO3ql8Sssj9P7H-18" style="edgeStyle=orthogonalEdgeStyle;rounded=0;orthogonalLoop=1;jettySize=auto;html=1;" parent="WIyWlLk6GJQsqaUBKTNV-1" source="bh_W2lqO3ql8Sssj9P7H-7" edge="1">
          <mxGeometry relative="1" as="geometry">
            <mxPoint x="90" y="700" as="targetPoint" />
          </mxGeometry>
        </mxCell>
        <mxCell id="bh_W2lqO3ql8Sssj9P7H-7" value="-6 &amp;lt;= x &amp;lt;= 1" style="rhombus;whiteSpace=wrap;html=1;" parent="WIyWlLk6GJQsqaUBKTNV-1" vertex="1">
          <mxGeometry x="-85" y="490" width="140" height="80" as="geometry" />
        </mxCell>
        <mxCell id="bh_W2lqO3ql8Sssj9P7H-23" style="edgeStyle=orthogonalEdgeStyle;rounded=0;orthogonalLoop=1;jettySize=auto;html=1;" parent="WIyWlLk6GJQsqaUBKTNV-1" source="bh_W2lqO3ql8Sssj9P7H-8" target="bh_W2lqO3ql8Sssj9P7H-22" edge="1">
          <mxGeometry relative="1" as="geometry" />
        </mxCell>
        <mxCell id="bh_W2lqO3ql8Sssj9P7H-24" style="edgeStyle=orthogonalEdgeStyle;rounded=0;orthogonalLoop=1;jettySize=auto;html=1;" parent="WIyWlLk6GJQsqaUBKTNV-1" source="bh_W2lqO3ql8Sssj9P7H-8" edge="1">
          <mxGeometry relative="1" as="geometry">
            <mxPoint x="80" y="920" as="targetPoint" />
          </mxGeometry>
        </mxCell>
        <mxCell id="bh_W2lqO3ql8Sssj9P7H-8" value="if 1 &amp;lt;= x &amp;lt;= 6" style="rhombus;whiteSpace=wrap;html=1;" parent="WIyWlLk6GJQsqaUBKTNV-1" vertex="1">
          <mxGeometry x="-85" y="730" width="140" height="80" as="geometry" />
        </mxCell>
        <mxCell id="bh_W2lqO3ql8Sssj9P7H-29" style="edgeStyle=orthogonalEdgeStyle;rounded=0;orthogonalLoop=1;jettySize=auto;html=1;entryX=0.5;entryY=0;entryDx=0;entryDy=0;" parent="WIyWlLk6GJQsqaUBKTNV-1" source="bh_W2lqO3ql8Sssj9P7H-9" target="bh_W2lqO3ql8Sssj9P7H-27" edge="1">
          <mxGeometry relative="1" as="geometry" />
        </mxCell>
        <mxCell id="bh_W2lqO3ql8Sssj9P7H-31" style="edgeStyle=orthogonalEdgeStyle;rounded=0;orthogonalLoop=1;jettySize=auto;html=1;" parent="WIyWlLk6GJQsqaUBKTNV-1" source="bh_W2lqO3ql8Sssj9P7H-9" edge="1">
          <mxGeometry relative="1" as="geometry">
            <mxPoint x="90" y="1150" as="targetPoint" />
          </mxGeometry>
        </mxCell>
        <mxCell id="bh_W2lqO3ql8Sssj9P7H-9" value="x &amp;gt; 6" style="rhombus;whiteSpace=wrap;html=1;" parent="WIyWlLk6GJQsqaUBKTNV-1" vertex="1">
          <mxGeometry x="-85" y="950" width="140" height="80" as="geometry" />
        </mxCell>
        <mxCell id="bh_W2lqO3ql8Sssj9P7H-12" style="edgeStyle=orthogonalEdgeStyle;rounded=0;orthogonalLoop=1;jettySize=auto;html=1;" parent="WIyWlLk6GJQsqaUBKTNV-1" source="bh_W2lqO3ql8Sssj9P7H-10" target="bh_W2lqO3ql8Sssj9P7H-7" edge="1">
          <mxGeometry relative="1" as="geometry" />
        </mxCell>
        <mxCell id="bh_W2lqO3ql8Sssj9P7H-10" value="result := cos(2 * x) + cos(x) - x ** (0,1 * x)" style="rounded=0;whiteSpace=wrap;html=1;" parent="WIyWlLk6GJQsqaUBKTNV-1" vertex="1">
          <mxGeometry x="-80" y="380" width="130" height="60" as="geometry" />
        </mxCell>
        <mxCell id="bh_W2lqO3ql8Sssj9P7H-14" value="" style="endArrow=classic;startArrow=classic;html=1;rounded=0;" parent="WIyWlLk6GJQsqaUBKTNV-1" edge="1">
          <mxGeometry width="50" height="50" relative="1" as="geometry">
            <mxPoint x="-20" y="460" as="sourcePoint" />
            <mxPoint x="80" y="460" as="targetPoint" />
          </mxGeometry>
        </mxCell>
        <mxCell id="bh_W2lqO3ql8Sssj9P7H-21" style="edgeStyle=orthogonalEdgeStyle;rounded=0;orthogonalLoop=1;jettySize=auto;html=1;" parent="WIyWlLk6GJQsqaUBKTNV-1" source="bh_W2lqO3ql8Sssj9P7H-15" target="bh_W2lqO3ql8Sssj9P7H-8" edge="1">
          <mxGeometry relative="1" as="geometry" />
        </mxCell>
        <mxCell id="bh_W2lqO3ql8Sssj9P7H-15" value="result := ln(x) / tan(x)" style="rounded=0;whiteSpace=wrap;html=1;" parent="WIyWlLk6GJQsqaUBKTNV-1" vertex="1">
          <mxGeometry x="-80" y="610" width="130" height="60" as="geometry" />
        </mxCell>
        <mxCell id="bh_W2lqO3ql8Sssj9P7H-19" value="" style="endArrow=classic;startArrow=classic;html=1;rounded=0;" parent="WIyWlLk6GJQsqaUBKTNV-1" edge="1">
          <mxGeometry width="50" height="50" relative="1" as="geometry">
            <mxPoint x="-20" y="700" as="sourcePoint" />
            <mxPoint x="90" y="700" as="targetPoint" />
          </mxGeometry>
        </mxCell>
        <mxCell id="bh_W2lqO3ql8Sssj9P7H-25" style="edgeStyle=orthogonalEdgeStyle;rounded=0;orthogonalLoop=1;jettySize=auto;html=1;entryX=0.5;entryY=0;entryDx=0;entryDy=0;" parent="WIyWlLk6GJQsqaUBKTNV-1" source="bh_W2lqO3ql8Sssj9P7H-22" target="bh_W2lqO3ql8Sssj9P7H-9" edge="1">
          <mxGeometry relative="1" as="geometry" />
        </mxCell>
        <mxCell id="bh_W2lqO3ql8Sssj9P7H-22" value="result := 22 + (x ** 3)" style="rounded=0;whiteSpace=wrap;html=1;" parent="WIyWlLk6GJQsqaUBKTNV-1" vertex="1">
          <mxGeometry x="-80" y="840" width="130" height="60" as="geometry" />
        </mxCell>
        <mxCell id="bh_W2lqO3ql8Sssj9P7H-26" value="" style="endArrow=classic;startArrow=classic;html=1;rounded=0;" parent="WIyWlLk6GJQsqaUBKTNV-1" edge="1">
          <mxGeometry width="50" height="50" relative="1" as="geometry">
            <mxPoint x="-20" y="920" as="sourcePoint" />
            <mxPoint x="80" y="920" as="targetPoint" />
          </mxGeometry>
        </mxCell>
        <mxCell id="tif9Hd5MlSPMltk4A7el-4" style="edgeStyle=orthogonalEdgeStyle;rounded=0;orthogonalLoop=1;jettySize=auto;html=1;" edge="1" parent="WIyWlLk6GJQsqaUBKTNV-1" source="bh_W2lqO3ql8Sssj9P7H-27" target="bh_W2lqO3ql8Sssj9P7H-28">
          <mxGeometry relative="1" as="geometry" />
        </mxCell>
        <mxCell id="bh_W2lqO3ql8Sssj9P7H-27" value="result := x ** (0,1 * x) + x" style="rounded=0;whiteSpace=wrap;html=1;" parent="WIyWlLk6GJQsqaUBKTNV-1" vertex="1">
          <mxGeometry x="-80" y="1070" width="130" height="60" as="geometry" />
        </mxCell>
        <mxCell id="bh_W2lqO3ql8Sssj9P7H-34" style="edgeStyle=orthogonalEdgeStyle;rounded=0;orthogonalLoop=1;jettySize=auto;html=1;entryX=0.5;entryY=0;entryDx=0;entryDy=0;" parent="WIyWlLk6GJQsqaUBKTNV-1" source="bh_W2lqO3ql8Sssj9P7H-28" target="bh_W2lqO3ql8Sssj9P7H-33" edge="1">
          <mxGeometry relative="1" as="geometry" />
        </mxCell>
        <mxCell id="bh_W2lqO3ql8Sssj9P7H-28" value="Вывод&lt;div&gt;result&lt;/div&gt;" style="shape=parallelogram;perimeter=parallelogramPerimeter;whiteSpace=wrap;html=1;fixedSize=1;" parent="WIyWlLk6GJQsqaUBKTNV-1" vertex="1">
          <mxGeometry x="-75" y="1170" width="120" height="60" as="geometry" />
        </mxCell>
        <mxCell id="bh_W2lqO3ql8Sssj9P7H-32" value="" style="endArrow=classic;startArrow=classic;html=1;rounded=0;" parent="WIyWlLk6GJQsqaUBKTNV-1" edge="1">
          <mxGeometry width="50" height="50" relative="1" as="geometry">
            <mxPoint x="-20" y="1150" as="sourcePoint" />
            <mxPoint x="90" y="1150" as="targetPoint" />
            <Array as="points">
              <mxPoint x="30" y="1150" />
            </Array>
          </mxGeometry>
        </mxCell>
        <mxCell id="bh_W2lqO3ql8Sssj9P7H-33" value="Конец" style="rounded=1;whiteSpace=wrap;html=1;" parent="WIyWlLk6GJQsqaUBKTNV-1" vertex="1">
          <mxGeometry x="-75" y="1250" width="120" height="60" as="geometry" />
        </mxCell>
        <mxCell id="bh_W2lqO3ql8Sssj9P7H-35" value="A" style="edgeStyle=orthogonalEdgeStyle;rounded=0;orthogonalLoop=1;jettySize=auto;html=1;" parent="WIyWlLk6GJQsqaUBKTNV-1" source="bh_W2lqO3ql8Sssj9P7H-36" target="bh_W2lqO3ql8Sssj9P7H-38" edge="1">
          <mxGeometry relative="1" as="geometry" />
        </mxCell>
        <mxCell id="bh_W2lqO3ql8Sssj9P7H-36" value="Начало" style="rounded=1;whiteSpace=wrap;html=1;" parent="WIyWlLk6GJQsqaUBKTNV-1" vertex="1">
          <mxGeometry x="370" y="40" width="120" height="60" as="geometry" />
        </mxCell>
        <mxCell id="bh_W2lqO3ql8Sssj9P7H-69" style="edgeStyle=orthogonalEdgeStyle;rounded=0;orthogonalLoop=1;jettySize=auto;html=1;" parent="WIyWlLk6GJQsqaUBKTNV-1" source="bh_W2lqO3ql8Sssj9P7H-38" target="bh_W2lqO3ql8Sssj9P7H-66" edge="1">
          <mxGeometry relative="1" as="geometry" />
        </mxCell>
        <mxCell id="bh_W2lqO3ql8Sssj9P7H-38" value="Ввод&lt;div&gt;x&lt;/div&gt;" style="shape=parallelogram;perimeter=parallelogramPerimeter;whiteSpace=wrap;html=1;fixedSize=1;" parent="WIyWlLk6GJQsqaUBKTNV-1" vertex="1">
          <mxGeometry x="370" y="130" width="120" height="60" as="geometry" />
        </mxCell>
        <mxCell id="bh_W2lqO3ql8Sssj9P7H-39" style="edgeStyle=orthogonalEdgeStyle;rounded=0;orthogonalLoop=1;jettySize=auto;html=1;" parent="WIyWlLk6GJQsqaUBKTNV-1" source="bh_W2lqO3ql8Sssj9P7H-41" target="bh_W2lqO3ql8Sssj9P7H-52" edge="1">
          <mxGeometry relative="1" as="geometry" />
        </mxCell>
        <mxCell id="bh_W2lqO3ql8Sssj9P7H-40" style="edgeStyle=orthogonalEdgeStyle;rounded=0;orthogonalLoop=1;jettySize=auto;html=1;" parent="WIyWlLk6GJQsqaUBKTNV-1" source="bh_W2lqO3ql8Sssj9P7H-41" edge="1">
          <mxGeometry relative="1" as="geometry">
            <mxPoint x="530" y="710" as="targetPoint" />
          </mxGeometry>
        </mxCell>
        <mxCell id="bh_W2lqO3ql8Sssj9P7H-41" value="prev_x &amp;lt; -6" style="rhombus;whiteSpace=wrap;html=1;" parent="WIyWlLk6GJQsqaUBKTNV-1" vertex="1">
          <mxGeometry x="370" y="520" width="140" height="80" as="geometry" />
        </mxCell>
        <mxCell id="bh_W2lqO3ql8Sssj9P7H-42" style="edgeStyle=orthogonalEdgeStyle;rounded=0;orthogonalLoop=1;jettySize=auto;html=1;entryX=0.5;entryY=0;entryDx=0;entryDy=0;" parent="WIyWlLk6GJQsqaUBKTNV-1" source="bh_W2lqO3ql8Sssj9P7H-44" target="bh_W2lqO3ql8Sssj9P7H-55" edge="1">
          <mxGeometry relative="1" as="geometry" />
        </mxCell>
        <mxCell id="bh_W2lqO3ql8Sssj9P7H-43" style="edgeStyle=orthogonalEdgeStyle;rounded=0;orthogonalLoop=1;jettySize=auto;html=1;" parent="WIyWlLk6GJQsqaUBKTNV-1" source="bh_W2lqO3ql8Sssj9P7H-44" edge="1">
          <mxGeometry relative="1" as="geometry">
            <mxPoint x="540" y="1010" as="targetPoint" />
          </mxGeometry>
        </mxCell>
        <mxCell id="bh_W2lqO3ql8Sssj9P7H-44" value="prev_x &amp;lt;= 1" style="rhombus;whiteSpace=wrap;html=1;" parent="WIyWlLk6GJQsqaUBKTNV-1" vertex="1">
          <mxGeometry x="360" y="770" width="140" height="80" as="geometry" />
        </mxCell>
        <mxCell id="bh_W2lqO3ql8Sssj9P7H-45" style="edgeStyle=orthogonalEdgeStyle;rounded=0;orthogonalLoop=1;jettySize=auto;html=1;" parent="WIyWlLk6GJQsqaUBKTNV-1" source="bh_W2lqO3ql8Sssj9P7H-47" target="bh_W2lqO3ql8Sssj9P7H-58" edge="1">
          <mxGeometry relative="1" as="geometry" />
        </mxCell>
        <mxCell id="bh_W2lqO3ql8Sssj9P7H-46" style="edgeStyle=orthogonalEdgeStyle;rounded=0;orthogonalLoop=1;jettySize=auto;html=1;" parent="WIyWlLk6GJQsqaUBKTNV-1" source="bh_W2lqO3ql8Sssj9P7H-47" edge="1">
          <mxGeometry relative="1" as="geometry">
            <mxPoint x="530" y="1240" as="targetPoint" />
          </mxGeometry>
        </mxCell>
        <mxCell id="bh_W2lqO3ql8Sssj9P7H-47" value="prev_x &amp;lt;= 6" style="rhombus;whiteSpace=wrap;html=1;" parent="WIyWlLk6GJQsqaUBKTNV-1" vertex="1">
          <mxGeometry x="365" y="1030" width="140" height="80" as="geometry" />
        </mxCell>
        <mxCell id="bh_W2lqO3ql8Sssj9P7H-48" style="edgeStyle=orthogonalEdgeStyle;rounded=0;orthogonalLoop=1;jettySize=auto;html=1;entryX=0.5;entryY=0;entryDx=0;entryDy=0;" parent="WIyWlLk6GJQsqaUBKTNV-1" source="bh_W2lqO3ql8Sssj9P7H-50" target="bh_W2lqO3ql8Sssj9P7H-61" edge="1">
          <mxGeometry relative="1" as="geometry" />
        </mxCell>
        <mxCell id="bh_W2lqO3ql8Sssj9P7H-49" style="edgeStyle=orthogonalEdgeStyle;rounded=0;orthogonalLoop=1;jettySize=auto;html=1;" parent="WIyWlLk6GJQsqaUBKTNV-1" source="bh_W2lqO3ql8Sssj9P7H-50" edge="1">
          <mxGeometry relative="1" as="geometry">
            <mxPoint x="540" y="1440" as="targetPoint" />
          </mxGeometry>
        </mxCell>
        <mxCell id="bh_W2lqO3ql8Sssj9P7H-50" value="prev_x &amp;gt; 6" style="rhombus;whiteSpace=wrap;html=1;" parent="WIyWlLk6GJQsqaUBKTNV-1" vertex="1">
          <mxGeometry x="365" y="1260" width="140" height="80" as="geometry" />
        </mxCell>
        <mxCell id="bh_W2lqO3ql8Sssj9P7H-51" style="edgeStyle=orthogonalEdgeStyle;rounded=0;orthogonalLoop=1;jettySize=auto;html=1;" parent="WIyWlLk6GJQsqaUBKTNV-1" source="bh_W2lqO3ql8Sssj9P7H-52" target="bh_W2lqO3ql8Sssj9P7H-44" edge="1">
          <mxGeometry relative="1" as="geometry" />
        </mxCell>
        <mxCell id="bh_W2lqO3ql8Sssj9P7H-52" value="result := cos(2 * x) + cos(x) - x ** (0,1 * x)" style="rounded=0;whiteSpace=wrap;html=1;" parent="WIyWlLk6GJQsqaUBKTNV-1" vertex="1">
          <mxGeometry x="370" y="630" width="130" height="60" as="geometry" />
        </mxCell>
        <mxCell id="bh_W2lqO3ql8Sssj9P7H-53" value="" style="endArrow=classic;startArrow=classic;html=1;rounded=0;" parent="WIyWlLk6GJQsqaUBKTNV-1" edge="1">
          <mxGeometry width="50" height="50" relative="1" as="geometry">
            <mxPoint x="430" y="710" as="sourcePoint" />
            <mxPoint x="530" y="710" as="targetPoint" />
          </mxGeometry>
        </mxCell>
        <mxCell id="bh_W2lqO3ql8Sssj9P7H-54" style="edgeStyle=orthogonalEdgeStyle;rounded=0;orthogonalLoop=1;jettySize=auto;html=1;" parent="WIyWlLk6GJQsqaUBKTNV-1" source="bh_W2lqO3ql8Sssj9P7H-55" target="bh_W2lqO3ql8Sssj9P7H-47" edge="1">
          <mxGeometry relative="1" as="geometry" />
        </mxCell>
        <mxCell id="bh_W2lqO3ql8Sssj9P7H-55" value="result := ln(x) / tan(x)" style="rounded=0;whiteSpace=wrap;html=1;" parent="WIyWlLk6GJQsqaUBKTNV-1" vertex="1">
          <mxGeometry x="365" y="910" width="130" height="60" as="geometry" />
        </mxCell>
        <mxCell id="bh_W2lqO3ql8Sssj9P7H-56" value="" style="endArrow=classic;startArrow=classic;html=1;rounded=0;" parent="WIyWlLk6GJQsqaUBKTNV-1" edge="1">
          <mxGeometry width="50" height="50" relative="1" as="geometry">
            <mxPoint x="440" y="1010" as="sourcePoint" />
            <mxPoint x="540" y="1010" as="targetPoint" />
          </mxGeometry>
        </mxCell>
        <mxCell id="bh_W2lqO3ql8Sssj9P7H-57" style="edgeStyle=orthogonalEdgeStyle;rounded=0;orthogonalLoop=1;jettySize=auto;html=1;entryX=0.5;entryY=0;entryDx=0;entryDy=0;" parent="WIyWlLk6GJQsqaUBKTNV-1" source="bh_W2lqO3ql8Sssj9P7H-58" target="bh_W2lqO3ql8Sssj9P7H-50" edge="1">
          <mxGeometry relative="1" as="geometry" />
        </mxCell>
        <mxCell id="bh_W2lqO3ql8Sssj9P7H-58" value="result := 22 + (x ** 3)" style="rounded=0;whiteSpace=wrap;html=1;" parent="WIyWlLk6GJQsqaUBKTNV-1" vertex="1">
          <mxGeometry x="375" y="1140" width="130" height="60" as="geometry" />
        </mxCell>
        <mxCell id="bh_W2lqO3ql8Sssj9P7H-59" value="" style="endArrow=classic;startArrow=classic;html=1;rounded=0;" parent="WIyWlLk6GJQsqaUBKTNV-1" edge="1">
          <mxGeometry width="50" height="50" relative="1" as="geometry">
            <mxPoint x="430" y="1240" as="sourcePoint" />
            <mxPoint x="530" y="1240" as="targetPoint" />
          </mxGeometry>
        </mxCell>
        <mxCell id="bh_W2lqO3ql8Sssj9P7H-60" style="edgeStyle=orthogonalEdgeStyle;rounded=0;orthogonalLoop=1;jettySize=auto;html=1;" parent="WIyWlLk6GJQsqaUBKTNV-1" source="bh_W2lqO3ql8Sssj9P7H-61" edge="1">
          <mxGeometry relative="1" as="geometry">
            <mxPoint x="440" y="1460" as="targetPoint" />
          </mxGeometry>
        </mxCell>
        <mxCell id="bh_W2lqO3ql8Sssj9P7H-61" value="result := x ** (0,1 * x) + x" style="rounded=0;whiteSpace=wrap;html=1;" parent="WIyWlLk6GJQsqaUBKTNV-1" vertex="1">
          <mxGeometry x="375" y="1370" width="130" height="60" as="geometry" />
        </mxCell>
        <mxCell id="tif9Hd5MlSPMltk4A7el-5" style="edgeStyle=orthogonalEdgeStyle;rounded=0;orthogonalLoop=1;jettySize=auto;html=1;" edge="1" parent="WIyWlLk6GJQsqaUBKTNV-1" source="bh_W2lqO3ql8Sssj9P7H-63">
          <mxGeometry relative="1" as="geometry">
            <mxPoint x="390" y="1540" as="targetPoint" />
          </mxGeometry>
        </mxCell>
        <mxCell id="bh_W2lqO3ql8Sssj9P7H-63" value="Вывод&lt;div&gt;result&lt;/div&gt;" style="shape=parallelogram;perimeter=parallelogramPerimeter;whiteSpace=wrap;html=1;fixedSize=1;" parent="WIyWlLk6GJQsqaUBKTNV-1" vertex="1">
          <mxGeometry x="380" y="1460" width="120" height="60" as="geometry" />
        </mxCell>
        <mxCell id="bh_W2lqO3ql8Sssj9P7H-64" value="" style="endArrow=classic;startArrow=classic;html=1;rounded=0;" parent="WIyWlLk6GJQsqaUBKTNV-1" edge="1">
          <mxGeometry width="50" height="50" relative="1" as="geometry">
            <mxPoint x="440" y="1440" as="sourcePoint" />
            <mxPoint x="540" y="1440" as="targetPoint" />
          </mxGeometry>
        </mxCell>
        <mxCell id="bh_W2lqO3ql8Sssj9P7H-65" value="Конец" style="rounded=1;whiteSpace=wrap;html=1;" parent="WIyWlLk6GJQsqaUBKTNV-1" vertex="1">
          <mxGeometry x="380" y="1600" width="120" height="60" as="geometry" />
        </mxCell>
        <mxCell id="bh_W2lqO3ql8Sssj9P7H-70" style="edgeStyle=orthogonalEdgeStyle;rounded=0;orthogonalLoop=1;jettySize=auto;html=1;" parent="WIyWlLk6GJQsqaUBKTNV-1" source="bh_W2lqO3ql8Sssj9P7H-66" target="bh_W2lqO3ql8Sssj9P7H-67" edge="1">
          <mxGeometry relative="1" as="geometry" />
        </mxCell>
        <mxCell id="bh_W2lqO3ql8Sssj9P7H-66" value="prev_x := x&lt;div&gt;cycleEnd := 8&lt;/div&gt;&lt;div&gt;x := -8&lt;/div&gt;" style="rounded=0;whiteSpace=wrap;html=1;" parent="WIyWlLk6GJQsqaUBKTNV-1" vertex="1">
          <mxGeometry x="330" y="220" width="120" height="60" as="geometry" />
        </mxCell>
        <mxCell id="bh_W2lqO3ql8Sssj9P7H-72" style="edgeStyle=orthogonalEdgeStyle;rounded=0;orthogonalLoop=1;jettySize=auto;html=1;" parent="WIyWlLk6GJQsqaUBKTNV-1" source="bh_W2lqO3ql8Sssj9P7H-67" target="bh_W2lqO3ql8Sssj9P7H-71" edge="1">
          <mxGeometry relative="1" as="geometry" />
        </mxCell>
        <mxCell id="bh_W2lqO3ql8Sssj9P7H-74" style="edgeStyle=orthogonalEdgeStyle;rounded=0;orthogonalLoop=1;jettySize=auto;html=1;" parent="WIyWlLk6GJQsqaUBKTNV-1" source="bh_W2lqO3ql8Sssj9P7H-67" edge="1">
          <mxGeometry relative="1" as="geometry">
            <mxPoint x="640" y="1560" as="targetPoint" />
          </mxGeometry>
        </mxCell>
        <mxCell id="bh_W2lqO3ql8Sssj9P7H-67" value="x &amp;lt;= cycleEnd" style="rhombus;whiteSpace=wrap;html=1;" parent="WIyWlLk6GJQsqaUBKTNV-1" vertex="1">
          <mxGeometry x="375" y="320" width="130" height="80" as="geometry" />
        </mxCell>
        <mxCell id="bh_W2lqO3ql8Sssj9P7H-73" style="edgeStyle=orthogonalEdgeStyle;rounded=0;orthogonalLoop=1;jettySize=auto;html=1;entryX=0.5;entryY=0;entryDx=0;entryDy=0;" parent="WIyWlLk6GJQsqaUBKTNV-1" source="bh_W2lqO3ql8Sssj9P7H-71" target="bh_W2lqO3ql8Sssj9P7H-41" edge="1">
          <mxGeometry relative="1" as="geometry" />
        </mxCell>
        <mxCell id="bh_W2lqO3ql8Sssj9P7H-71" value="x := x - 0.3" style="rounded=0;whiteSpace=wrap;html=1;" parent="WIyWlLk6GJQsqaUBKTNV-1" vertex="1">
          <mxGeometry x="380" y="420" width="120" height="60" as="geometry" />
        </mxCell>
        <mxCell id="bh_W2lqO3ql8Sssj9P7H-75" value="" style="endArrow=classic;startArrow=classic;html=1;rounded=0;" parent="WIyWlLk6GJQsqaUBKTNV-1" edge="1">
          <mxGeometry width="50" height="50" relative="1" as="geometry">
            <mxPoint x="440" y="1560" as="sourcePoint" />
            <mxPoint x="640" y="1560" as="targetPoint" />
          </mxGeometry>
        </mxCell>
        <mxCell id="281feoiyg7kMWU3-KfWj-0" value="" style="endArrow=none;dashed=1;html=1;dashPattern=1 3;strokeWidth=2;rounded=0;entryX=0;entryY=0.5;entryDx=0;entryDy=0;" parent="WIyWlLk6GJQsqaUBKTNV-1" target="bh_W2lqO3ql8Sssj9P7H-10" edge="1" source="281feoiyg7kMWU3-KfWj-1">
          <mxGeometry width="50" height="50" relative="1" as="geometry">
            <mxPoint x="-110" y="440" as="sourcePoint" />
            <mxPoint x="-120" y="340" as="targetPoint" />
          </mxGeometry>
        </mxCell>
        <mxCell id="281feoiyg7kMWU3-KfWj-1" value="** - возведение в степень" style="text;html=1;align=center;verticalAlign=middle;resizable=0;points=[];autosize=1;strokeColor=none;fillColor=none;" parent="WIyWlLk6GJQsqaUBKTNV-1" vertex="1">
          <mxGeometry x="-260" y="395" width="170" height="30" as="geometry" />
        </mxCell>
        <mxCell id="281feoiyg7kMWU3-KfWj-2" value="" style="endArrow=none;dashed=1;html=1;dashPattern=1 3;strokeWidth=2;rounded=0;entryX=0;entryY=0.5;entryDx=0;entryDy=0;" parent="WIyWlLk6GJQsqaUBKTNV-1" edge="1">
          <mxGeometry width="50" height="50" relative="1" as="geometry">
            <mxPoint x="-110" y="640" as="sourcePoint" />
            <mxPoint x="-80" y="640" as="targetPoint" />
          </mxGeometry>
        </mxCell>
        <mxCell id="281feoiyg7kMWU3-KfWj-3" value="ln - логарифм&lt;div&gt;tan - тангенс&lt;/div&gt;" style="text;html=1;align=center;verticalAlign=middle;resizable=0;points=[];autosize=1;strokeColor=none;fillColor=none;" parent="WIyWlLk6GJQsqaUBKTNV-1" vertex="1">
          <mxGeometry x="-245" y="620" width="100" height="40" as="geometry" />
        </mxCell>
        <mxCell id="281feoiyg7kMWU3-KfWj-5" value="ln - логарифм&lt;div&gt;tan - тангенс&lt;/div&gt;" style="text;html=1;align=center;verticalAlign=middle;resizable=0;points=[];autosize=1;strokeColor=none;fillColor=none;" parent="WIyWlLk6GJQsqaUBKTNV-1" vertex="1">
          <mxGeometry x="550" y="920" width="100" height="40" as="geometry" />
        </mxCell>
        <mxCell id="281feoiyg7kMWU3-KfWj-6" value="" style="endArrow=none;dashed=1;html=1;dashPattern=1 3;strokeWidth=2;rounded=0;entryX=1;entryY=0.5;entryDx=0;entryDy=0;exitX=0.015;exitY=0.461;exitDx=0;exitDy=0;exitPerimeter=0;" parent="WIyWlLk6GJQsqaUBKTNV-1" source="281feoiyg7kMWU3-KfWj-5" target="bh_W2lqO3ql8Sssj9P7H-55" edge="1">
          <mxGeometry width="50" height="50" relative="1" as="geometry">
            <mxPoint x="290" y="860" as="sourcePoint" />
            <mxPoint x="340" y="810" as="targetPoint" />
          </mxGeometry>
        </mxCell>
        <mxCell id="281feoiyg7kMWU3-KfWj-7" value="** - возведение в степень" style="text;html=1;align=center;verticalAlign=middle;resizable=0;points=[];autosize=1;strokeColor=none;fillColor=none;" parent="WIyWlLk6GJQsqaUBKTNV-1" vertex="1">
          <mxGeometry x="520" y="645" width="170" height="30" as="geometry" />
        </mxCell>
        <mxCell id="281feoiyg7kMWU3-KfWj-8" value="" style="endArrow=none;dashed=1;html=1;dashPattern=1 3;strokeWidth=2;rounded=0;entryX=1;entryY=0.5;entryDx=0;entryDy=0;exitX=0.015;exitY=0.461;exitDx=0;exitDy=0;exitPerimeter=0;" parent="WIyWlLk6GJQsqaUBKTNV-1" source="281feoiyg7kMWU3-KfWj-7" edge="1">
          <mxGeometry width="50" height="50" relative="1" as="geometry">
            <mxPoint x="295" y="580" as="sourcePoint" />
            <mxPoint x="500" y="660" as="targetPoint" />
          </mxGeometry>
        </mxCell>
        <mxCell id="tif9Hd5MlSPMltk4A7el-3" style="edgeStyle=orthogonalEdgeStyle;rounded=0;orthogonalLoop=1;jettySize=auto;html=1;" edge="1" parent="WIyWlLk6GJQsqaUBKTNV-1" source="tif9Hd5MlSPMltk4A7el-2" target="bh_W2lqO3ql8Sssj9P7H-1">
          <mxGeometry relative="1" as="geometry" />
        </mxCell>
        <mxCell id="tif9Hd5MlSPMltk4A7el-2" value="Вывод&lt;br&gt;&quot;Введите значение x:&quot;" style="shape=parallelogram;perimeter=parallelogramPerimeter;whiteSpace=wrap;html=1;fixedSize=1;" vertex="1" parent="WIyWlLk6GJQsqaUBKTNV-1">
          <mxGeometry x="-65" y="110" width="120" height="60" as="geometry" />
        </mxCell>
        <mxCell id="tif9Hd5MlSPMltk4A7el-6" value="" style="endArrow=classic;html=1;rounded=0;" edge="1" parent="WIyWlLk6GJQsqaUBKTNV-1">
          <mxGeometry width="50" height="50" relative="1" as="geometry">
            <mxPoint x="390" y="1540" as="sourcePoint" />
            <mxPoint x="340" y="1540" as="targetPoint" />
          </mxGeometry>
        </mxCell>
        <mxCell id="tif9Hd5MlSPMltk4A7el-7" value="" style="endArrow=classic;html=1;rounded=0;" edge="1" parent="WIyWlLk6GJQsqaUBKTNV-1">
          <mxGeometry width="50" height="50" relative="1" as="geometry">
            <mxPoint x="340" y="1540" as="sourcePoint" />
            <mxPoint x="340" y="300" as="targetPoint" />
          </mxGeometry>
        </mxCell>
        <mxCell id="tif9Hd5MlSPMltk4A7el-8" value="" style="endArrow=classic;html=1;rounded=0;" edge="1" parent="WIyWlLk6GJQsqaUBKTNV-1">
          <mxGeometry width="50" height="50" relative="1" as="geometry">
            <mxPoint x="340" y="300" as="sourcePoint" />
            <mxPoint x="440" y="300" as="targetPoint" />
          </mxGeometry>
        </mxCell>
        <mxCell id="tif9Hd5MlSPMltk4A7el-9" value="" style="endArrow=classic;startArrow=classic;html=1;rounded=0;exitX=0.5;exitY=0;exitDx=0;exitDy=0;" edge="1" parent="WIyWlLk6GJQsqaUBKTNV-1" source="bh_W2lqO3ql8Sssj9P7H-65">
          <mxGeometry width="50" height="50" relative="1" as="geometry">
            <mxPoint x="400" y="1480" as="sourcePoint" />
            <mxPoint x="440" y="1560" as="targetPoint" />
          </mxGeometry>
        </mxCell>
      </root>
    </mxGraphModel>
  </diagram>
</mxfile>
